<mxfile host="app.diagrams.net" agent="Mozilla/5.0 (Windows NT 10.0; Win64; x64) AppleWebKit/537.36 (KHTML, like Gecko) Chrome/131.0.0.0 Safari/537.36" version="25.0.3">
  <diagram name="Page-1" id="dU61_xaa2tMnxcVhCDQq">
    <mxGraphModel dx="733" dy="362" grid="1" gridSize="10" guides="1" tooltips="1" connect="1" arrows="1" fold="1" page="1" pageScale="1" pageWidth="1169" pageHeight="827" math="0" shadow="0">
      <root>
        <mxCell id="0" />
        <mxCell id="1" parent="0" />
        <mxCell id="AKyNJUku8qiJcLdJf5KH-1" value="&lt;font style=&quot;font-size: 24px;&quot;&gt;POWER MANAGER BLOCK&lt;/font&gt;&lt;div&gt;&lt;font size=&quot;3&quot;&gt;&lt;br&gt;&lt;/font&gt;&lt;/div&gt;&lt;div&gt;&lt;font size=&quot;3&quot;&gt;&lt;br&gt;&lt;/font&gt;&lt;/div&gt;&lt;div&gt;&lt;font size=&quot;3&quot;&gt;&lt;br&gt;&lt;/font&gt;&lt;/div&gt;&lt;div&gt;&lt;font size=&quot;3&quot;&gt;&lt;br&gt;&lt;/font&gt;&lt;/div&gt;&lt;div&gt;&lt;font size=&quot;3&quot;&gt;&lt;br&gt;&lt;/font&gt;&lt;/div&gt;&lt;div&gt;&lt;font size=&quot;3&quot;&gt;&lt;br&gt;&lt;/font&gt;&lt;/div&gt;&lt;div&gt;&lt;font size=&quot;3&quot;&gt;&lt;br&gt;&lt;/font&gt;&lt;/div&gt;&lt;div&gt;&lt;font size=&quot;3&quot;&gt;&lt;br&gt;&lt;/font&gt;&lt;/div&gt;&lt;div&gt;&lt;font size=&quot;3&quot;&gt;&lt;br&gt;&lt;/font&gt;&lt;/div&gt;&lt;div&gt;&lt;br&gt;&lt;/div&gt;&lt;div&gt;&lt;font size=&quot;3&quot;&gt;&lt;br&gt;&lt;/font&gt;&lt;/div&gt;&lt;div&gt;&lt;font size=&quot;3&quot;&gt;&lt;br&gt;&lt;/font&gt;&lt;/div&gt;&lt;div&gt;&lt;br&gt;&lt;/div&gt;" style="rounded=1;whiteSpace=wrap;html=1;fillColor=#ffe6cc;strokeColor=#d79b00;" vertex="1" parent="1">
          <mxGeometry x="120" y="90" width="420" height="290" as="geometry" />
        </mxCell>
        <mxCell id="AKyNJUku8qiJcLdJf5KH-2" value="&lt;font style=&quot;font-size: 24px;&quot;&gt;BATTERY&amp;nbsp;&lt;/font&gt;&lt;div style=&quot;&quot;&gt;&lt;font style=&quot;font-size: 24px;&quot; face=&quot;Roboto, Helvetica Neue, Arial Nova, Nimbus Sans, Arial, sans-serif&quot;&gt;&lt;span style=&quot;font-variant-ligatures: no-common-ligatures; text-wrap-mode: nowrap;&quot;&gt;MONITOR&lt;/span&gt;&lt;/font&gt;&lt;/div&gt;" style="rounded=1;whiteSpace=wrap;html=1;align=center;fillColor=#e1d5e7;strokeColor=#9673a6;" vertex="1" parent="1">
          <mxGeometry x="380" y="280" width="140" height="80" as="geometry" />
        </mxCell>
        <mxCell id="AKyNJUku8qiJcLdJf5KH-3" value="&lt;font style=&quot;font-size: 24px;&quot;&gt;BATTERY MANAGER&lt;/font&gt;" style="rounded=1;whiteSpace=wrap;html=1;align=center;fillColor=#f5f5f5;fontColor=#333333;strokeColor=#666666;" vertex="1" parent="1">
          <mxGeometry x="360" y="150" width="165" height="120" as="geometry" />
        </mxCell>
        <mxCell id="AKyNJUku8qiJcLdJf5KH-4" value="&lt;font style=&quot;font-size: 24px;&quot;&gt;CHAGER&lt;/font&gt;&lt;div&gt;&lt;font style=&quot;font-size: 24px;&quot;&gt;CURENT PROTETION&lt;/font&gt;&lt;/div&gt;" style="rounded=1;whiteSpace=wrap;html=1;fillColor=#dae8fc;strokeColor=#6c8ebf;" vertex="1" parent="1">
          <mxGeometry x="172.5" y="150" width="165" height="120" as="geometry" />
        </mxCell>
        <mxCell id="AKyNJUku8qiJcLdJf5KH-5" value="&lt;div&gt;&lt;span style=&quot;color: rgb(85, 85, 85); font-family: Roboto, &amp;quot;Helvetica Neue&amp;quot;, &amp;quot;Arial Nova&amp;quot;, &amp;quot;Nimbus Sans&amp;quot;, Arial, sans-serif; font-variant-ligatures: no-common-ligatures; text-align: start; text-wrap-mode: nowrap;&quot;&gt;&lt;font style=&quot;font-size: 24px;&quot;&gt;BATTERY GAUGES&lt;/font&gt;&lt;/span&gt;&lt;/div&gt;&lt;div&gt;&lt;span style=&quot;color: rgb(85, 85, 85); font-family: Roboto, &amp;quot;Helvetica Neue&amp;quot;, &amp;quot;Arial Nova&amp;quot;, &amp;quot;Nimbus Sans&amp;quot;, Arial, sans-serif; font-variant-ligatures: no-common-ligatures; text-align: start; text-wrap-mode: nowrap;&quot;&gt;&lt;font style=&quot;font-size: 24px;&quot;&gt;BALANCER&lt;/font&gt;&lt;/span&gt;&lt;/div&gt;" style="rounded=1;whiteSpace=wrap;html=1;fillColor=#d5e8d4;strokeColor=#82b366;" vertex="1" parent="1">
          <mxGeometry x="140" y="280" width="230" height="85" as="geometry" />
        </mxCell>
      </root>
    </mxGraphModel>
  </diagram>
</mxfile>
